# Blender 3.3.0
# www.blender.org
mtllib lightining.mtl
o Cube
v -0.000000 0.000000 -0.008165
v 1.404449 0.000000 -1.208479
v 1.743067 0.000000 -1.962288
v 0.865532 0.000000 -2.171997
v 1.257472 0.000000 -4.001046
v 0.032662 0.000000 -1.649411
v 0.718555 0.000000 -1.420780
v -0.000000 0.630212 -0.008165
v 1.404449 0.630212 -1.208479
v 1.743067 0.630212 -1.962288
v 0.865532 0.630212 -2.171997
v 1.257472 0.630212 -4.001046
v 0.032662 0.630212 -1.649411
v 0.718555 0.630212 -1.420780
vn -0.0000 -1.0000 -0.0000
vn -0.0000 1.0000 -0.0000
vn 0.2324 -0.0000 -0.9726
vn 0.6497 -0.0000 0.7602
vn -0.3162 -0.0000 0.9487
vn 0.9778 -0.0000 0.2095
vn 0.9122 -0.0000 0.4098
vn -0.8913 -0.0000 -0.4534
vn -0.8869 -0.0000 -0.4619
vt 0.000000 0.000000
vt 0.000000 0.000000
vt 0.000000 0.000000
vt 0.000000 0.000000
vt 0.000000 0.000000
vt 0.000000 0.000000
vt 0.000000 0.000000
vt 0.000000 0.000000
vt 0.000000 0.000000
vt 0.000000 0.000000
vt 0.000000 0.000000
vt 0.000000 0.000000
vt 0.000000 0.000000
vt 0.000000 0.000000
s 0
f 2/2/1 1/1/1 7/7/1 6/6/1 5/5/1 4/4/1 3/3/1
f 9/9/2 10/10/2 11/11/2 12/12/2 13/13/2 14/14/2 8/8/2
f 3/3/3 4/4/3 11/11/3 10/10/3
f 1/1/4 2/2/4 9/9/4 8/8/4
f 6/6/5 7/7/5 14/14/5 13/13/5
f 4/4/6 5/5/6 12/12/6 11/11/6
f 2/2/7 3/3/7 10/10/7 9/9/7
f 7/7/8 1/1/8 8/8/8 14/14/8
f 5/5/9 6/6/9 13/13/9 12/12/9
